<svg xmlns="http://www.w3.org/2000/svg" xmlns:xlink="http://www.w3.org/1999/xlink" width="500" zoomAndPan="magnify" viewBox="0 0 375 374.999991" height="500" preserveAspectRatio="xMidYMid meet" version="1.0"><defs><g/><clipPath id="455e778e78"><path d="M 8.867188 8.867188 L 366.132812 8.867188 L 366.132812 366.132812 L 8.867188 366.132812 Z M 8.867188 8.867188 " clip-rule="nonzero"/></clipPath><clipPath id="acee9cf84e"><path d="M 187.5 8.867188 C 88.84375 8.867188 8.867188 88.84375 8.867188 187.5 C 8.867188 286.15625 88.84375 366.132812 187.5 366.132812 C 286.15625 366.132812 366.132812 286.15625 366.132812 187.5 C 366.132812 88.84375 286.15625 8.867188 187.5 8.867188 " clip-rule="nonzero"/></clipPath><clipPath id="a8eb98fe8d"><path d="M 25.378906 25.378906 L 349.621094 25.378906 L 349.621094 349.621094 L 25.378906 349.621094 Z M 25.378906 25.378906 " clip-rule="nonzero"/></clipPath><clipPath id="dcb9935e42"><path d="M 187.5 25.378906 C 97.964844 25.378906 25.378906 97.964844 25.378906 187.5 C 25.378906 277.035156 97.964844 349.621094 187.5 349.621094 C 277.035156 349.621094 349.621094 277.035156 349.621094 187.5 C 349.621094 97.964844 277.035156 25.378906 187.5 25.378906 " clip-rule="nonzero"/></clipPath><clipPath id="b50fe60caa"><path d="M 42.644531 42.644531 L 332.355469 42.644531 L 332.355469 332.355469 L 42.644531 332.355469 Z M 42.644531 42.644531 " clip-rule="nonzero"/></clipPath><clipPath id="6f9aed394b"><path d="M 187.5 42.644531 C 107.496094 42.644531 42.644531 107.496094 42.644531 187.5 C 42.644531 267.503906 107.496094 332.355469 187.5 332.355469 C 267.503906 332.355469 332.355469 267.503906 332.355469 187.5 C 332.355469 107.496094 267.503906 42.644531 187.5 42.644531 " clip-rule="nonzero"/></clipPath><clipPath id="37254d6f8f"><path d="M 63.160156 63.160156 L 311.839844 63.160156 L 311.839844 311.839844 L 63.160156 311.839844 Z M 63.160156 63.160156 " clip-rule="nonzero"/></clipPath><clipPath id="3649bb4212"><path d="M 187.5 63.160156 C 118.828125 63.160156 63.160156 118.828125 63.160156 187.5 C 63.160156 256.171875 118.828125 311.839844 187.5 311.839844 C 256.171875 311.839844 311.839844 256.171875 311.839844 187.5 C 311.839844 118.828125 256.171875 63.160156 187.5 63.160156 " clip-rule="nonzero"/></clipPath></defs><g clip-path="url(#455e778e78)"><g clip-path="url(#acee9cf84e)"><path fill="#000000" d="M 8.867188 8.867188 L 366.132812 8.867188 L 366.132812 366.132812 L 8.867188 366.132812 Z M 8.867188 8.867188 " fill-opacity="1" fill-rule="nonzero"/></g></g><g clip-path="url(#a8eb98fe8d)"><g clip-path="url(#dcb9935e42)"><path fill="#ffffff" d="M 25.378906 25.378906 L 349.621094 25.378906 L 349.621094 349.621094 L 25.378906 349.621094 Z M 25.378906 25.378906 " fill-opacity="1" fill-rule="nonzero"/></g></g><g clip-path="url(#b50fe60caa)"><g clip-path="url(#6f9aed394b)"><path fill="#9f0421" d="M 42.644531 42.644531 L 332.355469 42.644531 L 332.355469 332.355469 L 42.644531 332.355469 Z M 42.644531 42.644531 " fill-opacity="1" fill-rule="nonzero"/><path fill="#9f0421" d="M 42.644531 42.644531 L 332.355469 42.644531 L 332.355469 332.355469 L 42.644531 332.355469 Z M 42.644531 42.644531 " fill-opacity="1" fill-rule="nonzero"/></g></g><g clip-path="url(#37254d6f8f)"><g clip-path="url(#3649bb4212)"><path fill="#ffffff" d="M 63.160156 63.160156 L 311.839844 63.160156 L 311.839844 311.839844 L 63.160156 311.839844 Z M 63.160156 63.160156 " fill-opacity="1" fill-rule="nonzero"/></g></g><g fill="#808080" fill-opacity="1"><g transform="translate(126.960846, 214.372597)"><g><path d="M 11.84375 0 L 11.84375 -90.15625 L 29.5 -90.15625 L 60.65625 -29.875 L 91.578125 -90.15625 L 109.21875 -90.15625 L 109.21875 0 L 95.1875 0 L 95.046875 -67.625 L 65.421875 -9.40625 L 55.765625 -9.40625 L 25.890625 -67.625 L 25.890625 0 Z M 11.84375 0 "/></g></g></g><path stroke-linecap="round" transform="matrix(0.000000000000000042, -0.689948, 0.690028, 0.000000000000000042, 134.878824, 216.459977)" fill="none" stroke-linejoin="miter" d="M 4.997849 4.998786 L 131.020625 4.998786 " stroke="#9f0421" stroke-width="10" stroke-opacity="1" stroke-miterlimit="4"/><path stroke-linecap="round" transform="matrix(-0.515273, -0.460903, 0.460035, -0.514302, 237.129467, 219.03287)" fill="none" stroke-linejoin="miter" d="M 5.002423 4.998986 L 193.632965 5.000835 " stroke="#9f0421" stroke-width="10" stroke-opacity="1" stroke-miterlimit="4"/><path stroke-linecap="round" transform="matrix(0.000000000000000042, -0.689948, 0.690028, 0.000000000000000042, 233.400004, 216.459977)" fill="none" stroke-linejoin="miter" d="M 4.997849 5.002059 L 131.020625 5.002059 " stroke="#9f0421" stroke-width="10" stroke-opacity="1" stroke-miterlimit="4"/><g fill="#9f0421" fill-opacity="1"><g transform="translate(168.397547, 232.566338)"><g><path d="M 11.140625 0 L 7.421875 0 L 3.578125 -7.40625 L 3.515625 -7.40625 C 3.609375 -6.238281 3.65625 -5.347656 3.65625 -4.734375 L 3.65625 0 L 1.140625 0 L 1.140625 -10.5 L 4.84375 -10.5 L 8.671875 -3.203125 L 8.703125 -3.203125 C 8.640625 -4.265625 8.609375 -5.113281 8.609375 -5.75 L 8.609375 -10.5 L 11.140625 -10.5 Z M 11.140625 0 "/></g></g></g><g fill="#9f0421" fill-opacity="1"><g transform="translate(180.671293, 232.566338)"><g><path d="M 1.140625 0 L 1.140625 -10.5 L 3.984375 -10.5 L 3.984375 0 Z M 1.140625 0 "/></g></g></g><g fill="#9f0421" fill-opacity="1"><g transform="translate(185.79494, 232.566338)"><g><path d="M 10.109375 0 L 6.90625 0 L 4.828125 -4.015625 L 3.984375 -3.515625 L 3.984375 0 L 1.140625 0 L 1.140625 -10.5 L 3.984375 -10.5 L 3.984375 -5.9375 C 4.128906 -6.226562 4.421875 -6.675781 4.859375 -7.28125 L 7.0625 -10.5 L 10.171875 -10.5 L 6.859375 -5.796875 Z M 10.109375 0 "/></g></g></g><g fill="#9f0421" fill-opacity="1"><g transform="translate(195.905695, 232.566338)"><g><path d="M 7.578125 0 L 7.0625 -1.96875 L 3.65625 -1.96875 L 3.125 0 L 0 0 L 3.421875 -10.546875 L 7.21875 -10.546875 L 10.6875 0 Z M 6.46875 -4.296875 L 6.015625 -6.015625 C 5.910156 -6.398438 5.78125 -6.894531 5.625 -7.5 C 5.476562 -8.113281 5.382812 -8.550781 5.34375 -8.8125 C 5.300781 -8.570312 5.210938 -8.171875 5.078125 -7.609375 C 4.953125 -7.046875 4.671875 -5.941406 4.234375 -4.296875 Z M 6.46875 -4.296875 "/></g></g></g><g fill="#000000" fill-opacity="1"><g transform="translate(124.32726, 251.519081)"><g><path d="M 6.421875 0 L 4.015625 -8.515625 L 3.9375 -8.515625 C 4.050781 -7.066406 4.109375 -5.941406 4.109375 -5.140625 L 4.109375 0 L 1.28125 0 L 1.28125 -11.828125 L 5.53125 -11.828125 L 8 -3.421875 L 8.0625 -3.421875 L 10.484375 -11.828125 L 14.75 -11.828125 L 14.75 0 L 11.8125 0 L 11.8125 -5.1875 C 11.8125 -5.457031 11.8125 -5.753906 11.8125 -6.078125 C 11.820312 -6.410156 11.859375 -7.21875 11.921875 -8.5 L 11.859375 -8.5 L 9.46875 0 Z M 6.421875 0 "/></g></g><g transform="translate(140.338059, 251.519081)"><g><path d="M 8.53125 0 L 7.953125 -2.21875 L 4.109375 -2.21875 L 3.515625 0 L 0 0 L 3.859375 -11.875 L 8.125 -11.875 L 12.03125 0 Z M 7.28125 -4.84375 L 6.78125 -6.78125 C 6.65625 -7.207031 6.507812 -7.765625 6.34375 -8.453125 C 6.175781 -9.140625 6.066406 -9.628906 6.015625 -9.921875 C 5.960938 -9.648438 5.863281 -9.195312 5.71875 -8.5625 C 5.570312 -7.9375 5.253906 -6.695312 4.765625 -4.84375 Z M 7.28125 -4.84375 "/></g></g><g transform="translate(152.36233, 251.519081)"><g><path d="M 1.28125 0 L 1.28125 -11.828125 L 4.46875 -11.828125 L 4.46875 -2.578125 L 9.03125 -2.578125 L 9.03125 0 Z M 1.28125 0 "/></g></g><g transform="translate(162.001155, 251.519081)"><g><path d="M 5.5 -7.4375 L 7.53125 -11.828125 L 11 -11.828125 L 7.109375 -4.625 L 7.109375 0 L 3.890625 0 L 3.890625 -4.515625 L 0 -11.828125 L 3.484375 -11.828125 Z M 5.5 -7.4375 "/></g></g><g transform="translate(172.998471, 251.519081)"><g><path d="M 0.34375 3.71875 C -0.238281 3.71875 -0.789062 3.660156 -1.3125 3.546875 L -1.3125 1.0625 C -1.132812 1.09375 -0.945312 1.128906 -0.75 1.171875 C -0.5625 1.210938 -0.351562 1.234375 -0.125 1.234375 C 0.394531 1.234375 0.769531 1.070312 1 0.75 C 1.226562 0.4375 1.34375 -0.101562 1.34375 -0.875 L 1.34375 -11.828125 L 4.546875 -11.828125 L 4.546875 -1.15625 C 4.546875 0.445312 4.195312 1.660156 3.5 2.484375 C 2.800781 3.304688 1.75 3.71875 0.34375 3.71875 Z M 0.34375 3.71875 "/></g></g><g transform="translate(178.828666, 251.519081)"><g><path d="M 11.328125 -11.828125 L 11.328125 -4.703125 C 11.328125 -3.160156 10.890625 -1.960938 10.015625 -1.109375 C 9.140625 -0.265625 7.878906 0.15625 6.234375 0.15625 C 4.617188 0.15625 3.378906 -0.253906 2.515625 -1.078125 C 1.648438 -1.898438 1.21875 -3.085938 1.21875 -4.640625 L 1.21875 -11.828125 L 4.421875 -11.828125 L 4.421875 -4.890625 C 4.421875 -4.046875 4.578125 -3.4375 4.890625 -3.0625 C 5.203125 -2.6875 5.664062 -2.5 6.28125 -2.5 C 6.925781 -2.5 7.394531 -2.6875 7.6875 -3.0625 C 7.988281 -3.4375 8.140625 -4.050781 8.140625 -4.90625 L 8.140625 -11.828125 Z M 11.328125 -11.828125 "/></g></g><g transform="translate(191.362373, 251.519081)"><g><path d="M 4.46875 -4.296875 L 4.46875 0 L 1.28125 0 L 1.28125 -11.828125 L 5.15625 -11.828125 C 8.363281 -11.828125 9.96875 -10.660156 9.96875 -8.328125 C 9.96875 -6.960938 9.300781 -5.90625 7.96875 -5.15625 L 11.40625 0 L 7.78125 0 L 5.28125 -4.296875 Z M 4.46875 -6.703125 L 5.078125 -6.703125 C 6.191406 -6.703125 6.75 -7.195312 6.75 -8.1875 C 6.75 -9 6.203125 -9.40625 5.109375 -9.40625 L 4.46875 -9.40625 Z M 4.46875 -6.703125 "/></g></g><g transform="translate(202.569932, 251.519081)"><g><path d="M 11.375 0 L 7.765625 0 L 5.4375 -4.515625 L 4.484375 -3.953125 L 4.484375 0 L 1.28125 0 L 1.28125 -11.828125 L 4.484375 -11.828125 L 4.484375 -6.6875 C 4.648438 -7.007812 4.976562 -7.515625 5.46875 -8.203125 L 7.953125 -11.828125 L 11.4375 -11.828125 L 7.71875 -6.53125 Z M 11.375 0 "/></g></g><g transform="translate(213.947303, 251.519081)"><g><path d="M 12.34375 -5.921875 C 12.34375 -3.929688 11.851562 -2.421875 10.875 -1.390625 C 9.894531 -0.359375 8.46875 0.15625 6.59375 0.15625 C 4.738281 0.15625 3.316406 -0.359375 2.328125 -1.390625 C 1.335938 -2.429688 0.84375 -3.945312 0.84375 -5.9375 C 0.84375 -7.90625 1.332031 -9.410156 2.3125 -10.453125 C 3.300781 -11.492188 4.734375 -12.015625 6.609375 -12.015625 C 8.484375 -12.015625 9.90625 -11.5 10.875 -10.46875 C 11.851562 -9.4375 12.34375 -7.921875 12.34375 -5.921875 Z M 4.203125 -5.921875 C 4.203125 -3.640625 5 -2.5 6.59375 -2.5 C 7.394531 -2.5 7.992188 -2.773438 8.390625 -3.328125 C 8.785156 -3.890625 8.984375 -4.753906 8.984375 -5.921875 C 8.984375 -7.109375 8.78125 -7.984375 8.375 -8.546875 C 7.976562 -9.109375 7.390625 -9.390625 6.609375 -9.390625 C 5.003906 -9.390625 4.203125 -8.234375 4.203125 -5.921875 Z M 4.203125 -5.921875 "/></g></g><g transform="translate(227.144082, 251.519081)"><g><path d="M 7.921875 -11.828125 L 11.484375 -11.828125 L 7.625 0 L 3.859375 0 L 0 -11.828125 L 3.59375 -11.828125 L 5.203125 -5.828125 C 5.535156 -4.492188 5.71875 -3.566406 5.75 -3.046875 C 5.789062 -3.421875 5.863281 -3.890625 5.96875 -4.453125 C 6.082031 -5.023438 6.1875 -5.472656 6.28125 -5.796875 Z M 7.921875 -11.828125 "/></g></g><g transform="translate(238.634661, 251.519081)"><g><path d="M 8.53125 0 L 7.953125 -2.21875 L 4.109375 -2.21875 L 3.515625 0 L 0 0 L 3.859375 -11.875 L 8.125 -11.875 L 12.03125 0 Z M 7.28125 -4.84375 L 6.78125 -6.78125 C 6.65625 -7.207031 6.507812 -7.765625 6.34375 -8.453125 C 6.175781 -9.140625 6.066406 -9.628906 6.015625 -9.921875 C 5.960938 -9.648438 5.863281 -9.195312 5.71875 -8.5625 C 5.570312 -7.9375 5.253906 -6.695312 4.765625 -4.84375 Z M 4.3125 -12.765625 L 4.3125 -13 C 5.132812 -13.894531 5.65625 -14.46875 5.875 -14.71875 C 6.101562 -14.976562 6.289062 -15.210938 6.4375 -15.421875 L 9.90625 -15.421875 L 9.90625 -15.25 C 9.46875 -14.90625 8.867188 -14.46875 8.109375 -13.9375 C 7.359375 -13.40625 6.789062 -13.015625 6.40625 -12.765625 Z M 4.3125 -12.765625 "/></g></g></g><g fill="#000000" fill-opacity="1"><g transform="translate(92.147619, 264.277975)"><g><path d="M 2.15625 2.515625 L 0.625 0.71875 L 7.359375 -5.03125 L 10.75 -1.046875 L 9.296875 0.203125 L 7.4375 -1.984375 L 6.140625 -0.890625 L 7.859375 1.125 L 6.40625 2.375 L 4.6875 0.359375 Z M 2.15625 2.515625 "/></g></g></g><g fill="#000000" fill-opacity="1"><g transform="translate(100.776659, 273.936912)"><g><path d="M 0.6875 0.65625 L 6.859375 -5.703125 L 8.578125 -4.015625 L 2.40625 2.34375 Z M 0.6875 0.65625 "/></g></g></g><g fill="#000000" fill-opacity="1"><g transform="translate(117.108734, 287.806819)"><g><path d="M 7.9375 5.015625 L 5.28125 3.328125 L 5.875 -3.65625 L 5.84375 -3.6875 C 5.382812 -2.820312 5.015625 -2.171875 4.734375 -1.734375 L 2.609375 1.640625 L 0.8125 0.515625 L 5.546875 -6.984375 L 8.1875 -5.328125 L 7.625 1.625 L 7.65625 1.640625 C 8.070312 0.847656 8.425781 0.222656 8.71875 -0.234375 L 10.859375 -3.625 L 12.671875 -2.484375 Z M 7.9375 5.015625 "/></g></g></g><g fill="#000000" fill-opacity="1"><g transform="translate(107.33119, 280.126134)"><g><path d="M 3.75 3.09375 L 1.90625 1.578125 L 6.296875 -3.75 L 4.625 -5.125 L 5.875 -6.625 L 11.046875 -2.359375 L 9.796875 -0.859375 L 8.140625 -2.234375 Z M 3.75 3.09375 "/></g></g></g><g fill="#000000" fill-opacity="1"><g transform="translate(131.654925, 296.412519)"><g><path d="M 5.65625 2.578125 L 0.859375 0.390625 L 4.53125 -7.671875 L 9.328125 -5.484375 L 8.53125 -3.734375 L 5.921875 -4.921875 L 5.34375 -3.65625 L 7.75 -2.5625 L 6.953125 -0.8125 L 4.546875 -1.90625 L 3.859375 -0.390625 L 6.46875 0.796875 Z M 5.65625 2.578125 "/></g></g></g><g fill="#000000" fill-opacity="1"><g transform="translate(143.976936, 301.975827)"><g><path d="M 7.25 -0.46875 C 7.082031 0.0625 6.796875 0.484375 6.390625 0.796875 C 5.992188 1.109375 5.507812 1.296875 4.9375 1.359375 C 4.375 1.429688 3.757812 1.359375 3.09375 1.140625 C 2.53125 0.953125 2.066406 0.753906 1.703125 0.546875 C 1.335938 0.335938 0.988281 0.0703125 0.65625 -0.25 L 1.3125 -2.265625 C 1.675781 -1.910156 2.070312 -1.59375 2.5 -1.3125 C 2.925781 -1.039062 3.335938 -0.835938 3.734375 -0.703125 C 4.066406 -0.597656 4.328125 -0.578125 4.515625 -0.640625 C 4.710938 -0.703125 4.84375 -0.828125 4.90625 -1.015625 C 4.945312 -1.140625 4.945312 -1.253906 4.90625 -1.359375 C 4.875 -1.460938 4.800781 -1.578125 4.6875 -1.703125 C 4.582031 -1.835938 4.265625 -2.144531 3.734375 -2.625 C 3.273438 -3.050781 2.945312 -3.425781 2.75 -3.75 C 2.5625 -4.070312 2.445312 -4.40625 2.40625 -4.75 C 2.363281 -5.09375 2.410156 -5.472656 2.546875 -5.890625 C 2.804688 -6.660156 3.289062 -7.171875 4 -7.421875 C 4.707031 -7.679688 5.550781 -7.648438 6.53125 -7.328125 C 7.394531 -7.046875 8.21875 -6.550781 9 -5.84375 L 7.734375 -4.328125 C 7.066406 -4.929688 6.445312 -5.328125 5.875 -5.515625 C 5.570312 -5.617188 5.335938 -5.640625 5.171875 -5.578125 C 5.015625 -5.523438 4.910156 -5.421875 4.859375 -5.265625 C 4.796875 -5.085938 4.828125 -4.90625 4.953125 -4.71875 C 5.078125 -4.539062 5.46875 -4.15625 6.125 -3.5625 C 6.738281 -3 7.125 -2.484375 7.28125 -2.015625 C 7.445312 -1.554688 7.4375 -1.039062 7.25 -0.46875 Z M 7.25 -0.46875 "/></g></g></g><g fill="#000000" fill-opacity="1"><g transform="translate(157.232394, 306.236336)"><g><path d="M 7.1875 -1.046875 C 7.0625 -0.515625 6.8125 -0.078125 6.4375 0.265625 C 6.070312 0.617188 5.601562 0.851562 5.03125 0.96875 C 4.46875 1.082031 3.84375 1.054688 3.15625 0.890625 C 2.582031 0.753906 2.109375 0.597656 1.734375 0.421875 C 1.367188 0.242188 1 0.00390625 0.625 -0.296875 L 1.125 -2.375 C 1.519531 -2.039062 1.9375 -1.753906 2.375 -1.515625 C 2.820312 -1.273438 3.25 -1.109375 3.65625 -1.015625 C 4 -0.929688 4.265625 -0.925781 4.453125 -1 C 4.640625 -1.070312 4.757812 -1.207031 4.8125 -1.40625 C 4.84375 -1.519531 4.835938 -1.628906 4.796875 -1.734375 C 4.753906 -1.835938 4.671875 -1.953125 4.546875 -2.078125 C 4.421875 -2.203125 4.078125 -2.476562 3.515625 -2.90625 C 3.023438 -3.300781 2.664062 -3.648438 2.4375 -3.953125 C 2.21875 -4.265625 2.078125 -4.585938 2.015625 -4.921875 C 1.953125 -5.265625 1.972656 -5.648438 2.078125 -6.078125 C 2.265625 -6.867188 2.695312 -7.414062 3.375 -7.71875 C 4.0625 -8.019531 4.90625 -8.054688 5.90625 -7.828125 C 6.800781 -7.609375 7.664062 -7.179688 8.5 -6.546875 L 7.359375 -4.9375 C 6.648438 -5.488281 6 -5.832031 5.40625 -5.96875 C 5.101562 -6.039062 4.867188 -6.039062 4.703125 -5.96875 C 4.546875 -5.90625 4.453125 -5.796875 4.421875 -5.640625 C 4.378906 -5.460938 4.425781 -5.285156 4.5625 -5.109375 C 4.707031 -4.941406 5.125 -4.585938 5.8125 -4.046875 C 6.476562 -3.535156 6.90625 -3.054688 7.09375 -2.609375 C 7.289062 -2.160156 7.320312 -1.640625 7.1875 -1.046875 Z M 7.1875 -1.046875 "/></g></g></g><g fill="#000000" fill-opacity="1"><g transform="translate(194.205059, 308.909486)"><g><path d="M 4.671875 -0.390625 L 2.359375 -0.1875 L 1.8125 -6.8125 L -0.25 -6.65625 L -0.40625 -8.53125 L 6.046875 -9.046875 L 6.203125 -7.171875 L 4.125 -7.015625 Z M 4.671875 -0.390625 "/></g></g></g><g fill="#000000" fill-opacity="1"><g transform="translate(206.324423, 307.421189)"><g><path d="M 2.578125 -3.671875 L 3.171875 -0.625 L 0.90625 -0.171875 L -0.734375 -8.546875 L 2.015625 -9.09375 C 4.285156 -9.539062 5.582031 -8.941406 5.90625 -7.296875 C 6.09375 -6.328125 5.765625 -5.484375 4.921875 -4.765625 L 8.078125 -1.578125 L 5.515625 -1.078125 L 3.140625 -3.78125 Z M 2.234375 -5.375 L 2.65625 -5.453125 C 3.445312 -5.609375 3.773438 -6.035156 3.640625 -6.734375 C 3.523438 -7.304688 3.082031 -7.515625 2.3125 -7.359375 L 1.859375 -7.28125 Z M 2.234375 -5.375 "/></g></g></g><g fill="#000000" fill-opacity="1"><g transform="translate(220.104226, 304.44053)"><g><path d="M 5.65625 -1.96875 L 0.875 -0.296875 L -1.9375 -8.359375 L 2.84375 -10.03125 L 3.453125 -8.28125 L 0.84375 -7.375 L 1.28125 -6.109375 L 3.6875 -6.953125 L 4.3125 -5.203125 L 1.90625 -4.359375 L 2.4375 -2.828125 L 5.046875 -3.734375 Z M 5.65625 -1.96875 "/></g></g></g><g fill="#000000" fill-opacity="1"><g transform="translate(232.409244, 299.948415)"><g><path d="M 8.25 -3.703125 L 5.484375 -2.46875 L 0.1875 -6.671875 L 0.140625 -6.65625 C 0.585938 -5.820312 0.914062 -5.175781 1.125 -4.71875 L 2.703125 -1.21875 L 0.84375 -0.375 L -2.65625 -8.15625 L 0.09375 -9.390625 L 5.34375 -5.25 L 5.390625 -5.28125 C 4.984375 -6.03125 4.671875 -6.644531 4.453125 -7.125 L 2.875 -10.640625 L 4.75 -11.484375 Z M 8.25 -3.703125 "/></g></g></g><g fill="#000000" fill-opacity="1"><g transform="translate(247.043068, 292.900497)"><g><path d="M 5.15625 -3.03125 L 0.796875 -0.46875 L -3.53125 -7.828125 L 0.828125 -10.390625 L 1.765625 -8.796875 L -0.609375 -7.40625 L 0.078125 -6.25 L 2.28125 -7.546875 L 3.21875 -5.9375 L 1.015625 -4.640625 L 1.828125 -3.25 L 4.203125 -4.640625 Z M -2.84375 -9.015625 L -2.921875 -9.15625 C -2.742188 -10.007812 -2.628906 -10.5625 -2.578125 -10.8125 C -2.535156 -11.0625 -2.503906 -11.273438 -2.484375 -11.453125 L -0.328125 -12.71875 L -0.265625 -12.609375 C -0.410156 -12.234375 -0.617188 -11.738281 -0.890625 -11.125 C -1.160156 -10.519531 -1.375 -10.070312 -1.53125 -9.78125 Z M -2.84375 -9.015625 "/></g></g></g><g fill="#000000" fill-opacity="1"><g transform="translate(258.185299, 285.892905)"><g><path d="M 0.59375 -4.453125 L 2.53125 -2.015625 L 0.71875 -0.578125 L -4.59375 -7.25 L -2.40625 -8.984375 C -0.582031 -10.429688 0.847656 -10.5 1.890625 -9.1875 C 2.503906 -8.414062 2.601562 -7.515625 2.1875 -6.484375 L 6.4375 -5.125 L 4.40625 -3.5 L 1.046875 -4.8125 Z M -0.484375 -5.796875 L -0.15625 -6.0625 C 0.476562 -6.5625 0.570312 -7.09375 0.125 -7.65625 C -0.226562 -8.101562 -0.710938 -8.082031 -1.328125 -7.59375 L -1.6875 -7.3125 Z M -0.484375 -5.796875 "/></g></g></g><g fill="#000000" fill-opacity="1"><g transform="translate(269.307369, 276.834224)"><g><path d="M 5.890625 -5.734375 L 4.015625 -3.90625 L 0.53125 -5.078125 L 0.3125 -4.296875 L 2.3125 -2.25 L 0.65625 -0.640625 L -5.296875 -6.765625 L -3.640625 -8.375 L -1.046875 -5.71875 C -1.117188 -5.96875 -1.203125 -6.394531 -1.296875 -7 L -1.84375 -10.125 L -0.03125 -11.890625 L 0.703125 -7.25 Z M 5.890625 -5.734375 "/></g></g></g><g fill="#000000" fill-opacity="1"><g transform="translate(278.045408, 267.775532)"><g><path d="M 4.046875 -4.640625 L 2.5625 -5.375 L 0.75 -3.28125 L 1.65625 -1.90625 L 0 0 L -4.640625 -7.71875 L -2.625 -10.046875 L 5.6875 -6.546875 Z M 0.828125 -6.25 L -0.484375 -6.890625 C -0.773438 -7.035156 -1.148438 -7.222656 -1.609375 -7.453125 C -2.066406 -7.679688 -2.382812 -7.859375 -2.5625 -7.984375 C -2.425781 -7.816406 -2.222656 -7.546875 -1.953125 -7.171875 C -1.679688 -6.796875 -1.15625 -6.03125 -0.375 -4.875 Z M 0.828125 -6.25 "/></g></g></g></svg>